<svg viewBox="0 0 261 261" xmlns="http://www.w3.org/2000/svg"><g fill="none" fill-rule="evenodd"><path d="M7.963 139.376s4.646 22.39 1.174 30.196c-3.465 7.812-5.67 29.783 17.929 31.428 0 0-2.265-30.643 32.508-30.313 0 0 31.803 9.03 34.787 29.68h81.813s9.941-33.328 35.275-33.658c0 0 24.642 3.916 29.864 32.123 0 0 21.102 7.468 18.458-6.897 0 0-1.587-21.351-4.232-27.105 0 0 2.184-19.755-15.366-22.46l-40.76-5.176L155.105 85 30.49 86.886l-15.48 51.045-7.046 1.445z" fill="#00F"/><path d="M58 215c-7.731 0-14-6.269-14-14s6.269-14 14-14 14 6.269 14 14-6.269 14-14 14zm166-14c0 7.731-6.269 14-14 14s-14-6.269-14-14 6.269-14 14-14 14 6.269 14 14" fill="#FDD069"/><path fill="#A5DCEF" d="M35 136l50-3.06L84.98 95l-41.335 6.197zm70.88-40L104 137h71l-31.37-37.969z"/><path d="M45.306 187.167a18.612 18.612 0 0 0-5.442 13.185c0 5.145 2.076 9.815 5.442 13.178l.129.149A18.546 18.546 0 0 0 58.448 219c5.138 0 9.783-2.101 13.15-5.47a18.606 18.606 0 0 0 5.448-13.178c0-5.145-2.089-9.809-5.449-13.185l-.115-.122c-3.36-3.287-7.957-5.334-13.034-5.334a18.544 18.544 0 0 0-13.142 5.443v.013zm164.52-5.456a18.54 18.54 0 0 0-13.142 5.456 18.646 18.646 0 0 0-5.45 13.185c0 5.158 2.076 9.815 5.43 13.178l.013.013.007-.013c3.36 3.369 8.01 5.47 13.142 5.47 5.13 0 9.789-2.101 13.149-5.47a18.6 18.6 0 0 0 5.442-13.178 18.64 18.64 0 0 0-5.442-13.185l-.122-.122c-3.353-3.287-7.957-5.334-13.027-5.334zm-9.215 9.429a13.006 13.006 0 0 0-3.82 9.24c0 3.592 1.454 6.859 3.82 9.218l.163.156a12.934 12.934 0 0 0 9.038 3.674 12.92 12.92 0 0 0 9.201-3.83 13.01 13.01 0 0 0 3.82-9.219c0-3.613-1.46-6.873-3.82-9.24l-.162-.155a12.978 12.978 0 0 0-18.24.156zm-151.364 0l-.155.17a13.046 13.046 0 0 0-3.664 9.07c0 3.585 1.46 6.845 3.82 9.218a12.92 12.92 0 0 0 9.2 3.83 12.92 12.92 0 0 0 9.201-3.83l.162-.17a13.016 13.016 0 0 0 3.658-9.049 13.01 13.01 0 0 0-3.82-9.24 12.942 12.942 0 0 0-9.2-3.822 12.942 12.942 0 0 0-9.202 3.823zm94.287-89.912h-36.688v31.954h63.898l-24.107-30.462c-.399-.502-.859-.881-1.366-1.118-.507-.251-1.088-.373-1.737-.373zm-39.318-5.274a2.626 2.626 0 0 0-2.637 2.623v37.235a2.63 2.63 0 0 0 2.637 2.637h71.977c.575 0 1.143-.183 1.63-.57a2.657 2.657 0 0 0 .425-3.707l-27.5-34.734a9.18 9.18 0 0 0-3.198-2.59c-1.23-.596-2.576-.894-4.016-.894h-39.318zm-56.659 0a9.121 9.121 0 0 0-5.631 1.918c-1.568 1.214-2.738 2.95-3.272 5.023l-8.268 32.273a2.63 2.63 0 0 0 2.535 3.281h53.833c1.46 0 2.63-1.172 2.63-2.637V98.577a2.62 2.62 0 0 0-2.63-2.623H47.557zm36.567 5.274H47.557c-.919 0-1.764.298-2.427.806a4.045 4.045 0 0 0-1.399 2.156l-7.43 28.992h47.823v-31.954zm139.46 42.604c-.11 0-.21-.007-.325-.034l-21.62-1.478a15.763 15.763 0 0 1-6.247-1.722c-1.892-.996-3.569-2.386-4.975-4.162L155.033 92.22c-1.048-1.308-2.278-2.305-3.637-2.956-1.365-.644-2.893-.99-4.583-.99H39.222c-2.495 0-4.773.821-6.558 2.238-1.784 1.416-3.11 3.45-3.69 5.87l-10.33 43.451a2.628 2.628 0 0 1-2.576 2.102h-3.583v23.854a2.633 2.633 0 0 1-2.63 2.643H8.266v14.818a10.53 10.53 0 0 0 3.09 7.457 10.495 10.495 0 0 0 7.43 3.091h5.03a35.312 35.312 0 0 1 11.269-19.895c6.226-5.532 14.413-8.894 23.363-8.894 8.951 0 17.145 3.362 23.37 8.894a35.421 35.421 0 0 1 11.277 19.895h82.104c1.454-7.85 5.524-14.805 11.256-19.895 6.233-5.532 14.407-8.894 23.37-8.894 8.952 0 17.132 3.362 23.365 8.894 5.74 5.097 9.809 12.045 11.276 19.895h4.326a3.953 3.953 0 0 0 2.786-1.16 3.94 3.94 0 0 0 1.162-2.792v-21.415h-1.588a2.635 2.635 0 0 1-2.637-2.643v-16.54a4.017 4.017 0 0 0-1.054-2.719 3.904 3.904 0 0 0-2.623-1.233l-21.255-1.464zm2.65-5.105l18.955 1.309a9.19 9.19 0 0 1 6.105 2.908 9.247 9.247 0 0 1 2.488 6.304v13.902h1.581a2.638 2.638 0 0 1 2.637 2.638v24.057a9.192 9.192 0 0 1-2.697 6.514 9.154 9.154 0 0 1-6.51 2.719h-6.578c-1.38 0-2.515-1.078-2.623-2.44a30.132 30.132 0 0 0-9.87-18.805 29.893 29.893 0 0 0-19.896-7.544 29.88 29.88 0 0 0-19.896 7.544 30.184 30.184 0 0 0-9.883 18.913 2.62 2.62 0 0 1-2.603 2.332h-86.6a2.638 2.638 0 0 1-2.63-2.44 30.067 30.067 0 0 0-9.87-18.805 29.893 29.893 0 0 0-19.896-7.544 29.862 29.862 0 0 0-19.889 7.544 30.087 30.087 0 0 0-9.883 18.913 2.635 2.635 0 0 1-2.603 2.332h-7.288c-4.347 0-8.295-1.783-11.154-4.644C4.778 191.567 3 187.614 3 183.25v-17.462a2.64 2.64 0 0 1 2.63-2.637h1.602v-23.854a2.62 2.62 0 0 1 2.623-2.63h4.13l9.87-41.5a15.85 15.85 0 0 1 5.565-8.777c2.71-2.15 6.118-3.39 9.802-3.39h107.59c2.441 0 4.753.515 6.842 1.532 2.09.996 3.941 2.481 5.47 4.4l35.376 44.215c.967 1.2 2.082 2.136 3.326 2.793 1.23.644 2.623 1.024 4.165 1.132l18.976 1.302 5.266.352z" fill="#000"/><path d="M37.258 51.155h44.046V22.238H46.357a2.31 2.31 0 0 0-1.416.466 2.34 2.34 0 0 0-.78 1.242l-6.903 27.21zm47.434 3.431H32.888l7.988-31.49A5.758 5.758 0 0 1 42.854 20a5.656 5.656 0 0 1 3.503-1.194h38.335v35.78zm22.772-3.43h58.844l-21.986-28.06c-.237-.302-.495-.522-.752-.646a2.325 2.325 0 0 0-1.03-.212h-35.076v28.917zm65.856 3.43h-69.244v-35.78h38.464c.908 0 1.741.186 2.48.543.718.343 1.375.885 1.95 1.612l26.35 33.625zM46.357 16.906c-1.7 0-3.3.542-4.614 1.578-1.315 1.036-2.25 2.477-2.676 4.165L30.78 55.314a.896.896 0 0 0 .109.706c.068.13.244.35.569.433l54.176.034a.926.926 0 0 0 .935-.947V17.846a.92.92 0 0 0-.935-.94H46.357zm39.277 43.012H31.682a4.326 4.326 0 0 1-3.713-2.141 4.4 4.4 0 0 1-.468-3.314l8.28-32.678c.63-2.436 1.971-4.509 3.882-6.012 1.924-1.51 4.234-2.298 6.694-2.298h39.277c2.385 0 4.322 1.955 4.322 4.37V55.54c0 2.416-1.937 4.378-4.322 4.378zm17.507-43.012a.946.946 0 0 0-.955.94V55.54c0 .535.42.947.955.947h72.13a.95.95 0 0 0 .59-.206c.4-.322.454-.933.135-1.352l-27.555-35.148a7.574 7.574 0 0 0-2.615-2.148c-.99-.48-2.1-.727-3.286-.727h-39.4zm72.13 43.012h-72.13c-2.398 0-4.343-1.962-4.343-4.378V17.846c0-2.416 1.945-4.371 4.343-4.371h39.399c1.7 0 3.3.363 4.763 1.07 1.47.728 2.737 1.764 3.794 3.102l27.555 35.162c1.477 1.914 1.159 4.666-.69 6.162a4.306 4.306 0 0 1-2.69.947zm69.807 52.6h2.954a2.284 2.284 0 0 0 2.263-2.285V90.269c-2.344-.055-4.242-2.004-4.242-4.385V69.14c0-.597-.216-1.16-.603-1.592a2.2 2.2 0 0 0-1.477-.693l-43.308-3.026a17.359 17.359 0 0 1-6.924-1.922c-2.134-1.139-3.99-2.704-5.542-4.666L152.743 12.48c-.894-1.126-1.917-1.97-3.048-2.519-1.16-.549-2.46-.83-3.87-.83H37.997c-2.06 0-3.977.659-5.529 1.887-1.538 1.235-2.608 2.964-3.09 5.003L19.026 60c-.4 1.976-2.188 3.444-4.234 3.444h-1.898v22.44c0 2.381-1.883 4.33-4.227 4.385v13.285c0 2.388.928 4.646 2.601 6.34 1.68 1.696 3.896 2.622 6.247 2.622h3.666a37.823 37.823 0 0 1 11.545-19.715c6.782-6.073 15.495-9.429 24.54-9.429s17.765 3.356 24.547 9.429c5.773 5.195 9.838 12.153 11.552 19.715H172.9a37.712 37.712 0 0 1 11.532-19.715c6.795-6.073 15.515-9.429 24.547-9.429 9.045 0 17.758 3.356 24.54 9.429a37.845 37.845 0 0 1 11.559 19.715zm2.954 3.43H242.3l-.264-1.4a34.334 34.334 0 0 0-10.766-19.173c-6.16-5.524-14.073-8.57-22.291-8.57-8.205 0-16.126 3.046-22.298 8.57-5.576 5.01-9.39 11.817-10.739 19.173l-.257 1.4H90.586l-.264-1.393c-1.368-7.363-5.197-14.17-10.76-19.187-6.158-5.517-14.078-8.564-22.297-8.564-8.218 0-16.132 3.047-22.29 8.571-5.577 5.01-9.398 11.817-10.753 19.173l-.258 1.4h-6.45c-3.252 0-6.321-1.283-8.638-3.63a12.407 12.407 0 0 1-3.598-8.763V86.839h3.293a.944.944 0 0 0 .935-.954v-25.87h5.285c.447 0 .84-.316.921-.749l10.373-44.041c.65-2.76 2.175-5.202 4.282-6.897 2.168-1.722 4.797-2.628 7.63-2.628h107.829c1.917 0 3.7.39 5.318 1.16 1.6.775 3.029 1.941 4.249 3.479l35.455 44.755a14.084 14.084 0 0 0 4.451 3.767 14.141 14.141 0 0 0 5.583 1.551l43.308 3.02a5.572 5.572 0 0 1 3.74 1.777 5.83 5.83 0 0 1 1.511 3.932v16.744c0 .528.434.954.955.954h3.287v23.393a5.676 5.676 0 0 1-1.68 4.056 5.556 5.556 0 0 1-3.971 1.66zm-6.593 5.353c-2.249 0-4.153-1.784-4.309-4.063a28.926 28.926 0 0 0-9.336-17.89 28.207 28.207 0 0 0-18.815-7.191 28.205 28.205 0 0 0-18.815 7.198c-5.19 4.674-8.51 11.097-9.35 18.069-.244 2.21-2.087 3.877-4.29 3.877h-86.79c-2.257 0-4.154-1.784-4.33-4.056-.833-6.841-4.146-13.23-9.323-17.897a28.233 28.233 0 0 0-18.815-7.191 28.188 28.188 0 0 0-18.808 7.198 28.785 28.785 0 0 0-9.35 18.062c-.244 2.216-2.094 3.884-4.289 3.884h-7.304c-4.668 0-9.058-1.853-12.372-5.209A17.74 17.74 0 0 1 0 103.555v-17.67c0-2.388 1.89-4.337 4.241-4.385V59.06c0-2.415 1.938-4.378 4.33-4.378h2.798l9.58-40.686c.935-3.952 3.076-7.356 6.173-9.84C30.232 1.665 33.999.354 37.996.354h107.83c2.717 0 5.271.583 7.602 1.73 2.324 1.118 4.37 2.779 6.064 4.92l35.448 44.762c.813 1.022 1.755 1.818 2.798 2.381 1.03.542 2.216.865 3.51.954l21.89 1.458.797 2.407-22.924-.448c-1.762-.116-3.388-.57-4.844-1.331-1.464-.775-2.765-1.887-3.87-3.28L156.843 9.15c-1.368-1.736-3.015-3.074-4.885-3.98-1.883-.926-3.936-1.386-6.131-1.386H37.996c-3.232 0-6.26 1.057-8.774 3.068-2.5 1.997-4.221 4.741-4.98 7.94L14.04 58.112H8.57a.944.944 0 0 0-.942.947v25.87h-3.3a.955.955 0 0 0-.941.955v17.67c0 3.809 1.477 7.404 4.146 10.108 2.676 2.71 6.22 4.207 9.98 4.207h7.304c.46 0 .874-.371.928-.844.922-7.817 4.628-15.001 10.461-20.237a31.536 31.536 0 0 1 21.058-8.063 31.58 31.58 0 0 1 21.065 8.056 32.335 32.335 0 0 1 10.447 20.12c.041.576.461.968.956.968h86.792c.474 0 .88-.364.928-.844.935-7.823 4.655-15.008 10.461-20.237a31.553 31.553 0 0 1 42.13-.007 32.41 32.41 0 0 1 10.454 20.113c.047.577.46.975.941.975h6.593c2.005 0 3.902-.803 5.332-2.251a7.623 7.623 0 0 0 2.202-5.387V85.885a.952.952 0 0 0-.948-.954h-3.28V69.14a7.755 7.755 0 0 0-2.04-5.229 7.469 7.469 0 0 0-4.986-2.388l-20.377-2.558-.797-2.407 21.405 1.548c2.764.185 5.332 1.42 7.236 3.472a11.201 11.201 0 0 1 2.947 7.562V81.5c2.337.062 4.228 2.004 4.228 4.385v24.347c0 2.958-1.139 5.73-3.198 7.81-2.067 2.099-4.81 3.259-7.724 3.259h-6.593zm-192.182-8.55l-.143.15a11.533 11.533 0 0 0-3.204 7.995c0 3.054 1.185 5.936 3.34 8.125 4.268 4.35 11.776 4.35 16.037 0 2.202-2.306 3.334-5.14 3.334-8.125 0-3.074-1.186-5.963-3.327-8.132-4.275-4.35-11.776-4.357-16.037-.014zm8.008 23.07c-3.943 0-7.642-1.558-10.42-4.378a14.971 14.971 0 0 1-4.323-10.547c0-3.884 1.477-7.57 4.153-10.376l.17-.185c5.562-5.64 15.298-5.627 20.847 0 2.778 2.813 4.316 6.567 4.316 10.56a14.97 14.97 0 0 1-4.14 10.363c-2.953 3.005-6.653 4.563-10.603 4.563zm151.707-26.433c-3.035 0-5.888 1.2-8.036 3.376a11.517 11.517 0 0 0-3.326 8.132c0 3.067 1.185 5.95 3.326 8.125 4.594 4.501 11.81 4.289 16.051 0 2.155-2.169 3.334-5.05 3.334-8.125 0-3.074-1.186-5.963-3.334-8.132-2.276-2.23-5.068-3.376-8.015-3.376zm0 26.433c-3.848 0-7.487-1.496-10.244-4.2-2.968-2.991-4.506-6.738-4.506-10.725 0-3.987 1.538-7.74 4.323-10.561 5.495-5.572 15.041-5.668 20.658-.179 2.967 2.992 4.505 6.746 4.505 10.74 0 3.994-1.538 7.74-4.322 10.554-2.778 2.813-6.478 4.371-10.414 4.371zm-151.707 5.64c-5.36 0-10.407-2.092-14.221-5.873-3.984-4.035-6.098-9.21-6.098-14.713 0-5.51 2.114-10.677 5.949-14.561l2.398 2.429c-3.198 3.232-4.96 7.541-4.96 12.132 0 4.584 1.762 8.894 4.96 12.126 6.647 6.629 17.582 6.45 23.951 0 3.198-3.24 4.966-7.542 4.966-12.126s-1.768-8.9-4.966-12.132c-6.66-6.622-17.63-6.416-23.95-.014l-2.4-2.43c3.829-3.876 8.93-6.017 14.371-6.017 5.346 0 10.4 2.093 14.249 5.894 3.97 4.022 6.084 9.196 6.084 14.7 0 5.503-2.114 10.67-5.962 14.547-3.842 3.898-8.944 6.039-14.37 6.039zm139.356-8.844l.386.384c3.204 3.239 7.46 5.03 11.972 5.03 4.526 0 8.78-1.791 11.979-5.03 3.204-3.232 4.966-7.535 4.966-12.126 0-4.59-1.762-8.9-4.966-12.132-6.64-6.608-17.569-6.45-23.951 0-3.205 3.239-4.967 7.548-4.967 12.132 0 4.406 1.62 8.55 4.58 11.742zm12.358 8.845c-4.851 0-9.452-1.722-13.124-4.872l-.508.514-.949-1.873c-3.706-3.863-5.745-8.948-5.745-14.356 0-5.496 2.114-10.67 5.962-14.561 3.848-3.884 8.95-6.032 14.364-6.032 5.352 0 10.413 2.093 14.242 5.894 3.97 4.022 6.09 9.189 6.09 14.7 0 5.51-2.12 10.677-5.955 14.547-3.848 3.898-8.95 6.039-14.377 6.039z" fill="#000" mask="url(#mask-2)" transform="translate(1 80)"/></g></svg>