<svg viewBox="0 0 261 261" xmlns="http://www.w3.org/2000/svg"><g fill="none" fill-rule="evenodd" xmlns="http://www.w3.org/2000/svg" xmlns:xlink="http://www.w3.org/1999/xlink"><path d="M92.24 181.232l2.773-1.041-2.773 1.041zM189.87 79.95l6.07 15.845-164.583 61.873-6.068-15.845L189.87 79.95zm-82.04 95.42l23.309-8.762-23.309 8.762zm-42.646 16.033l14.642-5.506-14.642 5.506zm74.878-5.609l-72.666 27.322c-7.109 2.667-15.165-.907-17.867-7.973l-29.633-77.416c-2.702-7.061.915-15.03 8.04-17.707l138.67-52.134c7.125-2.678 15.176.923 17.872 7.968l29.633 77.416c2.69 7.045-.937 15.04-8.046 17.707l-5.899 2.224-60.104 22.593z" fill="#00F"/><path d="M104.825 178.844a3.925 3.925 0 0 1-3.668-2.544 3.947 3.947 0 0 1 2.278-5.083l23.32-8.874a3.912 3.912 0 0 1 5.058 2.287 3.943 3.943 0 0 1-2.279 5.083l-23.319 8.874a3.879 3.879 0 0 1-1.39.257zm-15.6 5.941a3.92 3.92 0 0 1-3.67-2.544 3.94 3.94 0 0 1 2.28-5.082l2.774-1.05a3.916 3.916 0 0 1 5.053 2.28 3.939 3.939 0 0 1-2.278 5.083l-2.77 1.056a3.879 3.879 0 0 1-1.39.257zm-27.076 10.308a3.92 3.92 0 0 1-3.668-2.544 3.935 3.935 0 0 1 2.278-5.077l14.653-5.58a3.925 3.925 0 0 1 5.058 2.286 3.94 3.94 0 0 1-2.278 5.083l-14.653 5.575a3.879 3.879 0 0 1-1.39.257zM168.542 58.875a9.83 9.83 0 0 0-3.51.65L26.271 112.36c-2.476.94-4.438 2.8-5.534 5.24a9.975 9.975 0 0 0-.245 7.627l4.012 10.598 157.353-59.908-4.006-10.603a9.96 9.96 0 0 0-9.31-6.44zM27.285 143.189l3.292 8.699L187.931 91.98l-3.287-8.7-157.359 59.91zm109.794 42.28h.054-.054zM33.363 159.252l16.789 44.43a9.9 9.9 0 0 0 5.227 5.542c2.442 1.095 5.13 1.188 7.583.247l138.776-52.834c2.458-.936 4.42-2.796 5.516-5.247 1.096-2.446 1.189-5.148.257-7.621l-16.795-44.425-157.353 59.908zM59.478 218a17.7 17.7 0 0 1-7.315-1.592c-4.35-1.959-7.67-5.488-9.348-9.93l-24.257-64.175c-.011-.022-.016-.039-.022-.055l-5.375-14.23c-1.684-4.448-1.531-9.296.426-13.65 1.951-4.361 5.467-7.687 9.899-9.378l138.76-52.834c9.185-3.48 19.46 1.16 22.943 10.362l11.474 30.348a.585.585 0 0 1 .038.104l18.147 48.009c1.673 4.431 1.52 9.278-.436 13.644-1.957 4.372-5.468 7.698-9.894 9.383L65.748 216.84a17.638 17.638 0 0 1-6.27 1.16z" fill="#000"/><path fill="#FFF" d="M193 95.703L29.04 157 23 141.303 186.955 80z"/><path d="M26.995 142.168l4.124 10.842 158.886-60.178-4.124-10.842-158.886 60.178zM27.972 160L20 139.025 189.028 75 197 95.975 27.972 160z" fill="#000"/><path d="M141.312 197.591h2.963-2.963zm-50.723-16.45h131.302H90.589zm0 16.45h37.45-37.45zM160.565 219h-77.71C75.259 219 69 212.727 69 205.05v-84.106C69 113.273 75.236 107 82.856 107H231.15c7.614 0 13.85 6.29 13.85 13.945v84.104c0 7.656-6.252 13.951-13.85 13.951h-70.585z" fill="#A5DCEF"/><path d="M158.3 82.224H25.94c-2.273 0-4.118-1.833-4.118-4.092 0-2.26 1.845-4.092 4.118-4.092H158.3c2.274 0 4.118 1.833 4.118 4.092 0 2.259-1.844 4.092-4.117 4.092zM63.687 98.592H25.94c-2.273 0-4.118-1.833-4.118-4.092 0-2.259 1.845-4.092 4.118-4.092h37.746c2.273 0 4.118 1.833 4.118 4.092 0 2.259-1.845 4.092-4.118 4.092zm16.372 0h-2.992c-2.273 0-4.118-1.833-4.118-4.092 0-2.259 1.845-4.092 4.118-4.092h2.992c2.273 0 4.118 1.833 4.118 4.092 0 2.259-1.845 4.092-4.118 4.092zm-61.92-90.14c-5.43 0-9.844 4.393-9.844 9.789v83.679c0 5.396 4.414 9.788 9.844 9.788h149.49c5.43 0 9.845-4.392 9.845-9.788V18.241c0-5.396-4.414-9.788-9.844-9.788H18.139zm149.49 111.44H18.139c-9.97 0-18.08-8.064-18.08-17.972V18.241C.058 8.333 8.168.269 18.138.269h149.49c9.971 0 18.08 8.064 18.08 17.972v83.679c0 9.908-8.109 17.972-18.08 17.972z" fill="#000" mask="url(#mask-2)" transform="translate(64 102)"/><path fill="#637DFF" mask="url(#mask-4)" d="M82 110h16V93H82z" transform="translate(10 50)"/><path d="M86.006 104.265h7.988v-9.53h-7.988v9.53zM98 112H82.006C79.79 112 78 110.27 78 108.132V90.868C78 88.73 79.791 87 82.006 87H98c2.209 0 4 1.73 4 3.868v17.264c0 2.138-1.791 3.868-4 3.868z" fill="#000" mask="url(#mask-4)" transform="translate(10 50)"/><path d="M190 96c0 8.28-6.715 15-15.003 15-8.282 0-14.997-6.72-14.997-15 0-8.28 6.715-15 14.997-15C183.285 81 190 87.72 190 96" fill="#FA6E56" mask="url(#mask-4)" transform="translate(10 50)"/><path d="M175.497 85.86c-5.862 0-10.637 4.775-10.637 10.637 0 5.868 4.775 10.643 10.637 10.643 5.868 0 10.643-4.775 10.643-10.643 0-5.862-4.775-10.637-10.643-10.637m0 29.14c-10.2 0-18.497-8.302-18.497-18.503C157 86.297 165.296 78 175.497 78S194 86.296 194 96.497 185.698 115 175.497 115" fill="#000" mask="url(#mask-4)" transform="translate(10 50)"/><path d="M215 96c0 8.28-6.715 15-15.003 15-8.282 0-14.997-6.72-14.997-15 0-8.28 6.715-15 14.997-15C208.285 81 215 87.72 215 96" fill="#FDD069" mask="url(#mask-4)" transform="translate(10 50)"/><path d="M198.497 85.86c-5.862 0-10.637 4.775-10.637 10.637 0 5.868 4.775 10.643 10.637 10.643 5.868 0 10.643-4.775 10.643-10.643 0-5.862-4.775-10.637-10.643-10.637m0 29.14c-10.2 0-18.497-8.302-18.497-18.503C180 86.297 188.296 78 198.497 78S217 86.296 217 96.497 208.698 115 198.497 115" fill="#000" mask="url(#mask-4)" transform="translate(10 50)"/></g></svg>