<svg xmlns="http://www.w3.org/2000/svg" width="224.68" height="43.27" viewBox="110 -20.27 224.68 43.27"><title>Annuityrate</title><path d="M132.32 5.73h-13.53l-3.51 7.71H110l15.85-33.71L141 13.44h-5.31l-3.37-7.71zm-1.91-4.55l-4.74-10.79-4.92 10.75 9.66.04zm13.11-7.88h4.65v1.87a6.85 6.85 0 0 1 5.51-2.44c2.3-.12 4.52.9 5.92 2.73 1.14 1.68 1.23 4 1.23 5.6v12.38h-4.65V2.23c0-1.91.09-5.28-3.74-5.28-4 0-4.28 3.69-4.28 6.83v9.66h-4.64V-6.7zm21.48 0h4.65v1.87a6.829 6.829 0 0 1 5.53-2.44c2.3-.12 4.52.9 5.92 2.73 1.14 1.68 1.23 4 1.23 5.6v12.38h-4.65V2.23c0-1.91.09-5.28-3.74-5.28-4 0-4.28 3.69-4.28 6.83v9.66H165V-6.7zm26.17 0V4.87c-.16 1.28.14 2.57.83 3.65a4.19 4.19 0 0 0 5.92.27l.27-.27c.71-1.07 1.01-2.36.87-3.64V-6.7h4.65V4.96c0 2.37-.14 4.55-2.14 6.6a9.608 9.608 0 0 1-12.94 0c-2-2-2.14-4.24-2.14-6.6V-6.7h4.68zm19.08-11.29c1.66 0 3 1.34 3 3s-1.34 3-3 3-3-1.34-3-3 1.34-3 3-3zm2.32 11.3v20.13h-4.64V-6.7l4.64.01zm10.12 4.18v15.95H218V-2.51h-2V-6.7h2v-7.19h4.65v7.2h3.55v4.19l-3.51-.01zm14.52 12.24l-9-16.4h5.65l5.92 11.34 5.65-11.34h5.28l-15.26 29.7h-5.25l7.01-13.3zM253.38-6.7H258v1.82a5.991 5.991 0 0 1 4.81-2.39c1.35.02 2.66.43 3.78 1.18l-2.09 4.24a4.12 4.12 0 0 0-2.64-1c-1.21-.05-2.36.56-3 1.59a7.845 7.845 0 0 0-.82 4.15v10.55h-4.65l-.01-20.14zm34.8 0v20.14h-4.65v-2.1a7.66 7.66 0 0 1-6.1 2.73c-6.15 0-9.75-5.28-9.75-10.7s3.46-10.64 9.79-10.64a7.202 7.202 0 0 1 6.06 2.92V-6.7h4.65zM272.51 3.46c0 3.42 2 6.42 5.65 6.42 3.65 0 5.65-2.78 5.65-6.47 0-4.33-2.73-6.47-5.65-6.47-3.42.01-5.65 2.92-5.65 6.52zm25.78-5.97v15.95h-4.65V-2.51h-2V-6.7h2v-7.19h4.65v7.2h3.55v4.19l-3.55-.01zm24.5 10.71c-.67 1.28-1.57 2.44-2.64 3.42a10.931 10.931 0 0 1-7 2.46c-4.65 0-9.75-3.23-9.75-10.57 0-6.47 3.78-10.75 9.7-10.75a8.9 8.9 0 0 1 7.65 3.69c1.28 2.21 1.92 4.73 1.86 7.28v.73h-14.39a5.314 5.314 0 0 0 5.24 5.38h.18c1.16 0 2.28-.38 3.19-1.09.89-.75 1.57-1.7 2-2.78l3.96 2.23zm-5-7.51a4.635 4.635 0 0 0-4.65-3.74c-2.24.04-4.16 1.6-4.65 3.78l9.3-.04zm16.89-3.56c0 2.41-1.95 4.36-4.36 4.36s-4.36-1.95-4.36-4.36 1.95-4.36 4.36-4.36 4.36 1.95 4.36 4.36zm-8 0a3.64 3.64 0 0 0 7.28 0 3.644 3.644 0 0 0-3.44-3.83 3.644 3.644 0 0 0-3.83 3.44c-.02.14-.02.26-.01.39zM330-5.41c.55 0 1.8.1 1.8 1.52.04.68-.43 1.27-1.1 1.39l1.68 2.12h-1.08l-1.49-2h-.24v2h-.86v-5l1.29-.03zm-.43 2.25h.32c.36 0 1 0 1-.73s-.7-.73-1-.73h-.35l.03 1.46z"/></svg>