<svg xmlns="http://www.w3.org/2000/svg" width="174.2" height="174.2" viewBox="-218 309.8 174.2 174.2"><path d="M-71.5 310.8c-1.4-1.4-3.7-1.4-5.1 0l-51.8 51.8c-1.4 1.4-3.7 1.4-5.1 0l-51.8-51.8c-1.4-1.4-3.7-1.4-5.1 0l-26.7 26.7c-1.4 1.4-1.4 3.7 0 5.1l51.8 51.8c1.4 1.4 1.4 3.7 0 5.1l-51.8 51.8c-1.4 1.4-1.4 3.7 0 5.1l26.7 26.7c1.4 1.4 3.7 1.4 5.1 0l51.8-51.8c1.4-1.4 3.7-1.4 5.1 0l51.8 51.8c1.4 1.4 3.7 1.4 5.1 0l26.7-26.7c1.4-1.4 1.4-3.7 0-5.1l-51.8-51.8c-1.4-1.4-1.4-3.7 0-5.1l51.8-51.8c1.4-1.4 1.4-3.7 0-5.1l-26.7-26.7z"/></svg>