<svg id="Capa_1" xmlns="http://www.w3.org/2000/svg" width="24.2" height="31.1" viewBox="-285.6 381.9 24.2 31.1"><style>.st0{fill:#010002}</style><path class="st0" d="M-273.5 413c-.2 0-.5-.1-.6-.3-.5-.5-11.5-12.2-11.5-18.7 0-6.7 5.4-12.1 12.1-12.1 6.7 0 12.1 5.4 12.1 12.1 0 6.5-11 18.2-11.5 18.7-.1.2-.3.3-.6.3zm0-29.3c-5.7 0-10.3 4.6-10.3 10.3 0 4.5 6.9 13 10.3 16.8 3.4-3.7 10.3-12.3 10.3-16.8.1-5.7-4.6-10.3-10.3-10.3z"/><path class="st0" d="M-273.5 397.8c-2.8 0-5.1-2.3-5.1-5.1s2.3-5.1 5.1-5.1 5.1 2.3 5.1 5.1-2.2 5.1-5.1 5.1zm0-8.4c-1.8 0-3.3 1.5-3.3 3.3 0 1.8 1.5 3.3 3.3 3.3 1.8 0 3.3-1.5 3.3-3.3.1-1.8-1.4-3.3-3.3-3.3z"/></svg>