<svg viewBox="0 0 261 261" xmlns="http://www.w3.org/2000/svg"><g fill="none" fill-rule="evenodd"><path d="M179.108 130.399c-8.99-10.548-19.448-19.717-28.315-23.347L166.156 71.4l-17.996 1.945-17.329-11.011-.662-.084-17.334 10.927-17.99-1.777 14.873 34.525c-9.282 2.354-20.535 11.912-29.935 23.135-16.504 19.712-33.31 68.267-4.397 84.429 10.74 6.003 28.148 4.88 54.823 4.88 25.025 0 42.433 1.3 53.587-4.284 31.645-15.837 12.073-64.018-4.687-83.686" fill="#FDD069"/><path d="M131.334 105.812a3.604 3.604 0 0 1-3.325-4.984l8.745-21.119a3.6 3.6 0 0 1 4.705-1.954 3.613 3.613 0 0 1 1.945 4.714l-8.74 21.119a3.602 3.602 0 0 1-3.33 2.224" fill="#000"/><path d="M127.582 105.567a3.6 3.6 0 0 1-3.355-2.299l-6.247-16.074a3.61 3.61 0 0 1 2.05-4.669 3.602 3.602 0 0 1 4.66 2.059l6.245 16.074a3.603 3.603 0 0 1-3.355 4.91m2.35 40.117a3.604 3.604 0 0 1-3.6-3.607v-9.577a3.607 3.607 0 0 1 3.6-3.607c1.985 0 3.6 1.618 3.6 3.607v9.577a3.604 3.604 0 0 1-3.6 3.607m0 51.335a3.604 3.604 0 0 1-3.6-3.607v-9.578a3.607 3.607 0 0 1 3.6-3.607c1.985 0 3.6 1.618 3.6 3.607v9.578a3.604 3.604 0 0 1-3.6 3.606" fill="#000"/><path d="M131.832 185.93c-1.16 0-2.36-.07-3.585-.205-4.08-.466-7.995-1.769-12.145-3.151l-.915-.3a3.615 3.615 0 0 1-2.285-4.564c.63-1.889 2.68-2.89 4.555-2.29l.92.311c3.945 1.313 7.35 2.445 10.675 2.82 6.865.802 10.895-1.277 12.385-3.461.88-1.297.975-2.74.275-4.067-1.49-2.806-5.85-4.263-11.645-4.459h-.115c-8.775 0-15.4-3.01-18.185-8.265-1.93-3.641-1.67-7.91.705-11.41 3.505-5.16 10.725-7.655 19.355-6.698 4.115.466 8.075 1.788 12.27 3.186l.82.27a3.61 3.61 0 0 1 2.285 4.559 3.614 3.614 0 0 1-4.55 2.289l-.825-.276c-3.995-1.332-7.445-2.48-10.805-2.855-6.97-.816-11.07 1.333-12.595 3.587-.87 1.277-.975 2.69-.3 3.967 1.14 2.144 4.845 4.433 11.82 4.433.07.005.145.005.21 0 8.595 0 15.12 3.02 17.915 8.295 1.955 3.692 1.7 7.99-.685 11.501-2.955 4.358-8.63 6.783-15.555 6.783" fill="#000"/><path d="M74.966 116.32c4.24 0 8.266.035 12.086.07 18.514.175 31.91.29 40.534-4.047 7.76-3.898 12.586-10.244 14.33-18.855 4.17-20.528-9.3-47.863-20.2-60.717C109.246 18.07 96.192 8.562 88.452 8.562h-30.05c-7.825 0-19.976 8.746-31.71 22.832-11.81 14.171-22.35 41.451-18.79 60.817 1.644 8.961 6.135 15.558 13.334 19.606 8.495 4.763 22.826 4.673 42.71 4.548a1526 1526 0 0 1 11.02-.045m21.856 7.348c-3.115 0-6.39-.035-9.835-.065-7.255-.07-15.706-.075-22.995-.025-21.755.125-36.12.226-46.276-5.475-9.16-5.144-14.845-13.415-16.9-24.59-3.984-21.705 7.215-50.979 20.35-66.743 6.37-7.644 22.745-25.416 37.236-25.416h30.05c14.5 0 31.934 18.704 38.755 26.754 11.02 12.994 26.68 42.633 21.764 66.818-2.21 10.89-8.315 18.92-18.155 23.863-8.38 4.218-19.44 4.88-33.995 4.88" fill="#000" mask="url(#mask-2)" transform="translate(55 98.486)"/><path d="M109.256 107.05a3.601 3.601 0 0 1-3.305-2.174l-15.08-34.874a3.592 3.592 0 0 1 .415-3.582c.765-1.032 2.025-1.603 3.31-1.428l16.945 2 16.465-10.436a3.598 3.598 0 0 1 4.965 1.122 3.612 3.612 0 0 1-1.115 4.974l-17.55 11.118c-.695.44-1.53.646-2.345.536l-12-1.418 12.595 29.122a3.612 3.612 0 0 1-1.87 4.744c-.47.2-.955.296-1.43.296" fill="#000"/><path d="M151.268 107.05a3.64 3.64 0 0 1-1.43-.296 3.612 3.612 0 0 1-1.87-4.744l12.595-29.123-12 1.418c-.825.115-1.65-.096-2.345-.536l-17.55-11.116a3.612 3.612 0 0 1-1.115-4.974 3.599 3.599 0 0 1 4.965-1.122l16.465 10.434 16.945-1.998c1.285-.176 2.54.395 3.31 1.427s.93 2.4.415 3.582l-15.08 34.874a3.601 3.601 0 0 1-3.305 2.174" fill="#000"/></g></svg>