<svg viewBox="0 0 261 261" xmlns="http://www.w3.org/2000/svg"><g fill="none" fill-rule="evenodd"><path d="M91.626 60.558c3.582-.903 7.542-1.323 11.353-.29 12.953 3.504 17.263 20.137 7.546 32.217H14.349c0-13.85 11.393-24.435 26.18-25.137 1.893-12.004 13.447-20.475 27.421-19.423 12.084.911 22.364 8.673 26.147 18.706l-2.472-6.073z" fill="#9EE3E8"/><path d="M17.44 89.582h91.649c3.674-5.17 4.804-11.411 3.01-16.935-1.559-4.81-5.153-8.299-9.873-9.577-1.998-.54-4.205-.649-6.681-.322.47.927.888 1.883 1.258 2.858a2.9 2.9 0 0 1-1.685 3.738 2.884 2.884 0 0 1-3.73-1.685c-3.494-9.27-13.002-16.036-23.655-16.843-12.206-.891-22.674 6.383-24.347 16.988a2.901 2.901 0 0 1-2.721 2.448c-12.258.58-21.754 8.685-23.225 19.33m93.084 5.807h-96.18a2.896 2.896 0 0 1-2.89-2.904c0-14.5 11.317-26.137 26.682-27.854 3.172-12.375 15.73-20.682 30.027-19.601 9.516.714 18.296 5.431 23.944 12.431 4.326-.943 8.141-.94 11.627.004 6.641 1.795 11.699 6.674 13.874 13.383 2.524 7.79.72 16.56-4.829 23.46a2.89 2.89 0 0 1-2.255 1.08" fill="#000"/><path d="M72.93 154.234c-5.958-1.326-11.808-10.467-13.995-16.415-3.103 10.218-8.611 16.323-15.908 19.383 2.991 1.75 6.03 3.056 9.102 3.863-3.486 6.448-7.273 10.786-13.415 13.282 3.039 1.895 6.436 3.25 10.002 4.105-3.98 6.06-7.172 10.17-14.36 12.573 11.622 7.181 28.137 8.725 43.096 2.975" fill="#00F"/><path d="M58.51 200.417c-9.26 0-18.26-2.34-25.678-6.92a2.908 2.908 0 0 1 .607-5.226c5.086-1.701 7.856-4.318 10.638-8.165a35.18 35.18 0 0 1-6.895-3.294 2.917 2.917 0 0 1-1.359-2.714 2.908 2.908 0 0 1 1.805-2.444c4.145-1.685 7.237-4.362 10.172-8.935a41.928 41.928 0 0 1-6.232-3.008 2.903 2.903 0 0 1-1.43-2.698 2.9 2.9 0 0 1 1.772-2.488c6.883-2.887 11.546-8.629 14.256-17.552a2.891 2.891 0 0 1 2.685-2.056c1.194-.045 2.368.73 2.798 1.895 2.268 6.149 7.711 13.657 11.908 14.588a2.903 2.903 0 0 1 2.2 3.464c-.347 1.565-1.894 2.532-3.454 2.206-5.238-1.166-9.954-6.686-13.074-12.004-2.472 5.113-5.797 9.12-9.942 12 1.198.484 2.392.879 3.574 1.19.86.225 1.564.834 1.918 1.652a2.898 2.898 0 0 1-.109 2.537c-2.914 5.395-5.97 9.153-9.713 11.794a33.137 33.137 0 0 0 4.427 1.387c.92.218 1.672.875 2.018 1.754.35.88.249 1.875-.27 2.666-2.942 4.492-5.732 8.322-10.215 11.117 10.613 4.528 23.723 4.653 35.499.124a2.901 2.901 0 0 1 3.738 1.674 2.908 2.908 0 0 1-1.664 3.75 55.932 55.932 0 0 1-19.98 3.706" fill="#000"/><path d="M56.55 211.55a2.902 2.902 0 0 1-2.894-2.903v-11.072a2.903 2.903 0 0 1 2.894-2.908 2.903 2.903 0 0 1 2.895 2.908v11.072a2.902 2.902 0 0 1-2.895 2.903m7.064-1.05a2.902 2.902 0 0 1-2.895-2.902v-9.98a2.903 2.903 0 0 1 2.895-2.908 2.903 2.903 0 0 1 2.894 2.908v9.98c0 1.6-1.298 2.903-2.894 2.903" fill="#000"/><path fill="#A5DCEF" d="M197.773 215.26H73.983V110.276l61.894-25.065 61.896 25.065z"/><path fill="#6B90C7" mask="url(#mask-2)" d="M112.566 177.702h30.168v-52.218h-30.168z" transform="translate(10 40)"/><path d="M134.733 99.7c0 5.181-4.21 9.383-9.408 9.383-5.194 0-9.403-4.202-9.403-9.383 0-5.182 4.21-9.383 9.403-9.383 5.199 0 9.408 4.201 9.408 9.383" fill="#FDD069" mask="url(#mask-2)" transform="translate(10 40)"/><path fill="#6B90C7" mask="url(#mask-2)" d="M157.722 117.504h12.201v-14.62h-12.201zm0 42.025h12.201v-22.267h-12.201zm-75.568-42.025h12.2v-14.62h-12.2zm0 42.025h12.2v-22.267h-12.2z" transform="translate(10 40)"/><path fill="#FA6E56" mask="url(#mask-2)" d="M83.596 38.675h88.107L198.49 81.71h-52.263L127.65 55.908l-18.578 25.803H56.81z" transform="translate(10 40)"/><path d="M185.943 179.577a2.902 2.902 0 0 1-2.894-2.903V83.96c0-1.6 1.298-2.903 2.894-2.903a2.902 2.902 0 0 1 2.895 2.903v92.714a2.902 2.902 0 0 1-2.895 2.903m-120.131 0a2.902 2.902 0 0 1-2.895-2.903V83.96c0-1.6 1.299-2.903 2.895-2.903a2.902 2.902 0 0 1 2.894 2.903v92.714a2.901 2.901 0 0 1-2.894 2.903" fill="#000" mask="url(#mask-2)" transform="translate(10 40)"/><path d="M145.933 80.22h45.565l-23.176-37.226H83.43L60.254 80.22h45.565l17.713-24.597a2.884 2.884 0 0 1 2.348-1.205c.929 0 1.801.447 2.348 1.205l17.705 24.597zm50.784 5.807h-52.263a2.896 2.896 0 0 1-2.348-1.202L125.88 62.281l-16.23 22.544a2.902 2.902 0 0 1-2.347 1.202H55.04a2.894 2.894 0 0 1-2.533-1.496 2.912 2.912 0 0 1 .077-2.944L79.37 38.551a2.901 2.901 0 0 1 2.457-1.367h88.103c.997 0 1.926.52 2.452 1.367l26.787 43.036c.559.895.59 2.02.08 2.944a2.894 2.894 0 0 1-2.532 1.496zM84.4 116.404h7.064v-12.42h-7.063v12.42zm9.959 5.81H81.506a2.9 2.9 0 0 1-2.89-2.907V101.08c0-1.6 1.294-2.903 2.89-2.903H94.36a2.899 2.899 0 0 1 2.89 2.903v18.226a2.9 2.9 0 0 1-2.89 2.907zM84.4 156.625h7.064V139.48h-7.063v17.145zm9.959 5.807H81.506a2.899 2.899 0 0 1-2.89-2.903v-22.956c0-1.6 1.294-2.903 2.89-2.903H94.36a2.899 2.899 0 0 1 2.89 2.903v22.956c0 1.6-1.294 2.903-2.89 2.903zm65.931-5.807h7.064V139.48h-7.063v17.145zm9.959 5.807h-12.853a2.899 2.899 0 0 1-2.89-2.903v-22.956c0-1.6 1.294-2.903 2.89-2.903h12.853a2.899 2.899 0 0 1 2.89 2.903v22.956c0 1.6-1.294 2.903-2.89 2.903zm-9.959-46.028h7.064v-12.42h-7.063v12.42zm9.959 5.81h-12.853a2.9 2.9 0 0 1-2.89-2.907V101.08c0-1.6 1.294-2.903 2.89-2.903h12.853a2.899 2.899 0 0 1 2.89 2.903v18.226a2.9 2.9 0 0 1-2.89 2.907zM125.88 92.618c-3.896 0-7.064 3.178-7.064 7.08 0 3.908 3.168 7.085 7.063 7.085 3.896 0 7.064-3.177 7.064-7.084 0-3.903-3.168-7.08-7.064-7.08m0 19.97c-7.087 0-12.848-5.781-12.848-12.89 0-7.105 5.76-12.887 12.848-12.887 7.088 0 12.85 5.782 12.85 12.887 0 7.109-5.762 12.89-12.85 12.89m68.415 68.619H62.514a2.9 2.9 0 0 1-2.894-2.904 2.897 2.897 0 0 1 2.895-2.903h131.779a2.9 2.9 0 0 1 2.894 2.903 2.902 2.902 0 0 1-2.894 2.904" fill="#000" mask="url(#mask-2)" transform="translate(10 40)"/><path d="M140.08 177.76a2.902 2.902 0 0 1-2.895-2.903v-46.468h-22.614v46.468c0 1.6-1.294 2.903-2.89 2.903a2.9 2.9 0 0 1-2.895-2.903v-49.371a2.9 2.9 0 0 1 2.895-2.907h28.399a2.903 2.903 0 0 1 2.894 2.907v49.37a2.902 2.902 0 0 1-2.894 2.904" fill="#000" mask="url(#mask-2)" transform="translate(10 40)"/></g></svg>